{
  "accessors": [
    {
      "bufferView": 2,
      "componentType": 5126,
      "count": 1595,
      "max": [
        0.8837681412696838,
        0.6187389492988586,
        1.4585845470428467
      ],
      "min": [
        -0.8955704569816589,
        -0.38126105070114136,
        -0.8804977536201477
      ],
      "type": "VEC3"
    },
    {
      "bufferView": 2,
      "byteOffset": 19140,
      "componentType": 5126,
      "count": 1595,
      "max": [
        0.940579354763031,
        1.0,
        1.0
      ],
      "min": [
        -0.940579354763031,
        -1.0,
        -1.0
      ],
      "type": "VEC3"
    },
    {
      "bufferView": 1,
      "componentType": 5126,
      "count": 1595,
      "max": [
        0.875,
        1.0
      ],
      "min": [
        0.125,
        0.0
      ],
      "type": "VEC2"
    },
    {
      "bufferView": 0,
      "componentType": 5125,
      "count": 4665,
      "type": "SCALAR"
    },
    {
      "bufferView": 2,
      "byteOffset": 38280,
      "componentType": 5126,
      "count": 5983,
      "max": [
        0.8837681412696838,
        0.6187389492988586,
        1.4585845470428467
      ],
      "min": [
        -0.8955704569816589,
        -0.38126105070114136,
        -0.8804977536201477
      ],
      "type": "VEC3"
    },
    {
      "bufferView": 2,
      "byteOffset": 110076,
      "componentType": 5126,
      "count": 5983,
      "max": [
        1.0,
        1.0,
        1.0
      ],
      "min": [
        -1.0,
        -1.0,
        -1.0
      ],
      "type": "VEC3"
    },
    {
      "bufferView": 1,
      "byteOffset": 12760,
      "componentType": 5126,
      "count": 5983,
      "max": [
        1.0,
        1.0
      ],
      "min": [
        -7.803802759553946e-08,
        0.0
      ],
      "type": "VEC2"
    },
    {
      "bufferView": 0,
      "byteOffset": 18660,
      "componentType": 5125,
      "count": 29571,
      "type": "SCALAR"
    }
  ],
  "asset": {
    "extras": {
      "author": "osaifos (https://sketchfab.com/Seesio)",
      "license": "CC-BY-4.0 (http://creativecommons.org/licenses/by/4.0/)",
      "source": "https://sketchfab.com/3d-models/just-cheese-2a4b93077b574f019d41dea5cbc1c8cd",
      "title": "Just Cheese"
    },
    "generator": "Sketchfab-16.45.0",
    "version": "2.0"
  },
  "bufferViews": [
    {
      "buffer": 0,
      "byteLength": 136944,
      "name": "floatBufferViews",
      "target": 34963
    },
    {
      "buffer": 0,
      "byteLength": 60624,
      "byteOffset": 136944,
      "byteStride": 8,
      "name": "floatBufferViews",
      "target": 34962
    },
    {
      "buffer": 0,
      "byteLength": 181872,
      "byteOffset": 197568,
      "byteStride": 12,
      "name": "floatBufferViews",
      "target": 34962
    }
  ],
  "buffers": [
    {
      "byteLength": 379440,
      "uri": "scene.bin"
    }
  ],
  "materials": [
    {
      "doubleSided": true,
      "name": "material_0",
      "pbrMetallicRoughness": {
        "baseColorFactor": [
          1.0,
          0.5328848441506732,
          0.0,
          1.0
        ],
        "metallicFactor": 0.0,
        "roughnessFactor": 0.6
      }
    },
    {
      "doubleSided": true,
      "name": "Cheese",
      "pbrMetallicRoughness": {
        "baseColorFactor": [
          0.7317191157150251,
          0.4806968299917322,
          0.004810824909732303,
          1.0
        ],
        "metallicFactor": 0.0,
        "roughnessFactor": 0.6191433227151344
      }
    }
  ],
  "meshes": [
    {
      "name": "Object_0",
      "primitives": [
        {
          "attributes": {
            "NORMAL": 1,
            "POSITION": 0,
            "TEXCOORD_0": 2
          },
          "indices": 3,
          "material": 1,
          "mode": 4
        }
      ]
    },
    {
      "name": "Object_1",
      "primitives": [
        {
          "attributes": {
            "NORMAL": 5,
            "POSITION": 4,
            "TEXCOORD_0": 6
          },
          "indices": 7,
          "material": 0,
          "mode": 4
        }
      ]
    }
  ],
  "nodes": [
    {
      "children": [
        1
      ],
      "matrix": [
        1.0,
        0.0,
        0.0,
        0.0,
        0.0,
        2.220446049250313e-16,
        -1.0,
        0.0,
        0.0,
        1.0,
        2.220446049250313e-16,
        0.0,
        0.0,
        0.0,
        0.0,
        1.0
      ],
      "name": "Sketchfab_model"
    },
    {
      "children": [
        2
      ],
      "name": "root"
    },
    {
      "children": [
        3
      ],
      "matrix": [
        1.0,
        0.0,
        0.0,
        0.0,
        0.0,
        2.220446049250313e-16,
        1.0,
        0.0,
        0.0,
        -1.0,
        2.220446049250313e-16,
        0.0,
        0.0,
        0.0,
        0.0,
        1.0
      ],
      "name": "GLTF_SceneRootNode"
    },
    {
      "children": [
        4,
        5
      ],
      "matrix": [
        1.0,
        0.0,
        0.0,
        0.0,
        0.0,
        1.0,
        0.0,
        0.0,
        0.0,
        0.0,
        1.0,
        0.0,
        0.0059011853300035,
        0.38126105070114136,
        -0.4585844874382019,
        1.0
      ],
      "name": "Cheese_0"
    },
    {
      "mesh": 0,
      "name": "Object_4"
    },
    {
      "mesh": 1,
      "name": "Object_5"
    }
  ],
  "scene": 0,
  "scenes": [
    {
      "name": "Sketchfab_Scene",
      "nodes": [
        0
      ]
    }
  ]
}
