{
  "accessors": [
    {
      "bufferView": 2,
      "componentType": 5126,
      "count": 691,
      "max": [
        0.2750000059604645,
        0.054999999701976776,
        0.2750000059604645
      ],
      "min": [
        -0.2750000059604645,
        -0.29999440908432007,
        -0.2750000059604645
      ],
      "type": "VEC3"
    },
    {
      "bufferView": 2,
      "byteOffset": 8292,
      "componentType": 5126,
      "count": 691,
      "max": [
        0.9898734092712402,
        0.9898734092712402,
        0.9898734092712402
      ],
      "min": [
        -0.9898734092712402,
        -0.9898734092712402,
        -0.9898734092712402
      ],
      "type": "VEC3"
    },
    {
      "bufferView": 1,
      "componentType": 5126,
      "count": 691,
      "max": [
        1.0000001192092896,
        1.0000001192092896
      ],
      "min": [
        0.0,
        0.0
      ],
      "type": "VEC2"
    },
    {
      "bufferView": 0,
      "componentType": 5125,
      "count": 3156,
      "type": "SCALAR"
    },
    {
      "bufferView": 2,
      "byteOffset": 16584,
      "componentType": 5126,
      "count": 640,
      "max": [
        0.27021324634552,
        -0.29999440908432007,
        0.2701418101787567
      ],
      "min": [
        -0.27067235112190247,
        -0.3019944131374359,
        -0.27116209268569946
      ],
      "type": "VEC3"
    },
    {
      "bufferView": 2,
      "byteOffset": 24264,
      "componentType": 5126,
      "count": 640,
      "max": [
        1.0,
        0.9903852939605713,
        1.0
      ],
      "min": [
        -1.0,
        0.0,
        -1.0
      ],
      "type": "VEC3"
    },
    {
      "bufferView": 1,
      "byteOffset": 5528,
      "componentType": 5126,
      "count": 640,
      "max": [
        0.0,
        0.0
      ],
      "min": [
        0.0,
        0.0
      ],
      "type": "VEC2"
    },
    {
      "bufferView": 0,
      "byteOffset": 12624,
      "componentType": 5125,
      "count": 3432,
      "type": "SCALAR"
    }
  ],
  "asset": {
    "extras": {
      "author": "Adwers (https://sketchfab.com/Adwers)",
      "license": "CC-BY-4.0 (http://creativecommons.org/licenses/by/4.0/)",
      "source": "https://sketchfab.com/3d-models/ikea-table-746a51840451472882fab2e10334f245",
      "title": "Ikea Table"
    },
    "generator": "Sketchfab-12.67.0",
    "version": "2.0"
  },
  "bufferViews": [
    {
      "buffer": 0,
      "byteLength": 26352,
      "name": "floatBufferViews",
      "target": 34963
    },
    {
      "buffer": 0,
      "byteLength": 10648,
      "byteOffset": 26352,
      "byteStride": 8,
      "name": "floatBufferViews",
      "target": 34962
    },
    {
      "buffer": 0,
      "byteLength": 31944,
      "byteOffset": 37000,
      "byteStride": 12,
      "name": "floatBufferViews",
      "target": 34962
    }
  ],
  "buffers": [
    {
      "byteLength": 68944,
      "uri": "scene.bin"
    }
  ],
  "materials": [
    {
      "doubleSided": true,
      "name": "white",
      "pbrMetallicRoughness": {
        "baseColorFactor": [
          0.8741016688625401,
          0.8741016688625401,
          0.8741016688625401,
          1.0
        ],
        "metallicFactor": 0.3482799190120935,
        "roughnessFactor": 0.8772549842219507
      }
    },
    {
      "doubleSided": true,
      "name": "glides",
      "pbrMetallicRoughness": {
        "baseColorFactor": [
          0.31034588596650325,
          0.16921372566793108,
          0.022639181374214355,
          1.0
        ],
        "metallicFactor": 0.8225334257519654,
        "roughnessFactor": 0.6583687503420098
      }
    }
  ],
  "meshes": [
    {
      "name": "Object_0",
      "primitives": [
        {
          "attributes": {
            "NORMAL": 1,
            "POSITION": 0,
            "TEXCOORD_0": 2
          },
          "indices": 3,
          "material": 0,
          "mode": 4
        }
      ]
    },
    {
      "name": "Object_1",
      "primitives": [
        {
          "attributes": {
            "NORMAL": 5,
            "POSITION": 4,
            "TEXCOORD_0": 6
          },
          "indices": 7,
          "material": 1,
          "mode": 4
        }
      ]
    }
  ],
  "nodes": [
    {
      "children": [
        1
      ],
      "matrix": [
        1.0,
        0.0,
        0.0,
        0.0,
        0.0,
        2.220446049250313e-16,
        -1.0,
        0.0,
        0.0,
        1.0,
        2.220446049250313e-16,
        0.0,
        0.0,
        0.0,
        0.0,
        1.0
      ],
      "name": "Sketchfab_model"
    },
    {
      "children": [
        2
      ],
      "name": "root"
    },
    {
      "children": [
        3,
        5
      ],
      "matrix": [
        1.0,
        0.0,
        0.0,
        0.0,
        0.0,
        2.220446049250313e-16,
        1.0,
        0.0,
        0.0,
        -1.0,
        2.220446049250313e-16,
        0.0,
        0.0,
        0.0,
        0.0,
        1.0
      ],
      "name": "GLTF_SceneRootNode"
    },
    {
      "children": [
        4
      ],
      "name": "table_0"
    },
    {
      "mesh": 0,
      "name": "Object_4"
    },
    {
      "children": [
        6
      ],
      "name": "glides_1"
    },
    {
      "mesh": 1,
      "name": "Object_6"
    }
  ],
  "scene": 0,
  "scenes": [
    {
      "name": "Sketchfab_Scene",
      "nodes": [
        0
      ]
    }
  ]
}
